HIERARCHY
ROOT hip
{
	OFFSET 0.000000 0.000000 0.000000
	CHANNELS 6 Xposition Yposition Zposition Xrotation Zrotation Yrotation 
	JOINT abdomen
	{
		OFFSET 0.000000 3.422050 0.000000
		CHANNELS 3 Xrotation Zrotation Yrotation 
		JOINT chest
		{
			OFFSET 0.000000 8.486693 -0.684411
			CHANNELS 3 Xrotation Zrotation Yrotation 
			JOINT neck
			{
				OFFSET 0.000000 10.266162 -0.273764
				CHANNELS 3 Xrotation Zrotation Yrotation 
				JOINT head
				{
					OFFSET 0.000000 3.148285 0.000000
					CHANNELS 3 Xrotation Zrotation Yrotation 
					End Site
					{
						OFFSET 0.000000 3.148289 0.000000
					}
				}
			}
			JOINT lCollar
			{
				OFFSET 3.422053 6.707223 -0.821293
				CHANNELS 3 Yrotation Zrotation Xrotation 
				JOINT lShldr
				{
					OFFSET 3.285171 0.000000 0.000000
					CHANNELS 3 Zrotation Yrotation Xrotation 
					JOINT lForeArm
					{
						OFFSET 10.129278 0.000000 0.000000
						CHANNELS 3 Yrotation Zrotation Xrotation 
						JOINT lHand
						{
							OFFSET 8.486692 0.000000 0.000000
							CHANNELS 3 Zrotation Yrotation Xrotation 
							End Site
							{
								OFFSET 4.106464 0.000000 0.000000
							}
						}
					}
				}
			}
			JOINT rCollar
			{
				OFFSET -3.558935 6.707223 -0.821293
				CHANNELS 3 Yrotation Zrotation Xrotation 
				JOINT rShldr
				{
					OFFSET -3.148289 0.000000 0.000000
					CHANNELS 3 Zrotation Yrotation Xrotation 
					JOINT rForeArm
					{
						OFFSET -10.266159 0.000000 0.000000
						CHANNELS 3 Yrotation Zrotation Xrotation 
						JOINT rHand
						{
							OFFSET -8.349810 0.000000 0.000000
							CHANNELS 3 Zrotation Yrotation Xrotation 
							End Site
							{
								OFFSET -4.106464 0.000000 0.000000
							}
						}
					}
				}
			}
		}
	}
	JOINT lThigh
	{
		OFFSET 5.338403 -1.642589 1.368821
		CHANNELS 3 Xrotation Zrotation Yrotation 
		JOINT lShin
		{
			OFFSET -2.053232 -20.121670 0.000000
			CHANNELS 3 Xrotation Zrotation Yrotation 
			JOINT lFoot
			{
				OFFSET 0.000000 -19.300380 -1.231939
				CHANNELS 3 Xrotation Yrotation Zrotation 
				End Site
				{
					OFFSET 0.000000 -2.463878 4.653993
				}
			}
		}
	}
	JOINT rThigh
	{
		OFFSET -5.338403 -1.642589 1.368821
		CHANNELS 3 Xrotation Zrotation Yrotation 
		JOINT rShin
		{
			OFFSET 2.053232 -20.121670 0.000000
			CHANNELS 3 Xrotation Zrotation Yrotation 
			JOINT rFoot
			{
				OFFSET 0.000000 -19.300380 -1.231939
				CHANNELS 3 Xrotation Yrotation Zrotation 
				End Site
				{
					OFFSET 0.000000 -2.463878 4.653993
				}
			}
		}
	}
}
MOTION
Frames: 15
Frame Time: 0.049989
-16.917662 43.519489 0.000000 -0.002403 -2.752395 89.996872 -0.730758 -0.061645 -0.039486 5.643390 -0.137086 -0.587340 -25.440912 0.000000 0.000000 -0.128523 0.000000 0.000000 13.809147 -4.433702 1.318016 -8.262832 7.735103 -51.965843 -49.913761 -28.489307 -15.399130 -6.023905 -6.490101 -6.974224 -7.692362 4.896988 0.773203 53.883286 -7.758317 24.006573 48.923084 28.054810 -14.949429 6.996825 0.000000 0.000000 -4.676797 8.187769 4.091987 10.464570 -3.443667 -0.039659 -4.184138 -2.722059 3.725469 -4.105468 -6.386835 -8.598407 10.666236 5.896856 -0.062748 -3.570996 6.865066 -8.551765 
-16.897238 43.519489 0.000000 -0.002412 -2.502416 89.997009 -0.081513 -0.061612 -0.039496 4.894631 -0.137088 -0.587355 -25.010778 0.000000 0.000000 -0.126344 0.000000 0.000000 13.809147 -4.433702 1.318016 -8.262832 7.735103 -51.965843 -49.913761 -28.489307 -15.399130 -6.255263 -6.379524 -6.703418 -7.692362 4.896988 0.773203 53.883286 -7.758317 24.006573 48.923084 28.054810 -14.949429 6.996825 0.000000 0.000000 -4.368964 8.189589 4.105714 10.464570 -3.443667 -0.039659 -4.184138 -2.722059 3.725469 -3.798959 -6.386817 -8.599609 10.666236 5.896856 -0.062748 -3.570996 6.865066 -8.551765 
-16.876812 43.519489 0.000000 -0.002421 -2.252418 89.997147 0.568067 -0.061579 -0.039505 4.145362 -0.137091 -0.587370 -24.580385 0.000000 0.000000 -0.124166 0.000000 0.000000 13.809148 -4.433703 1.318016 -8.262832 7.735103 -51.965843 -49.913761 -28.489307 -15.399130 -6.486080 -6.267848 -6.433082 -7.692362 4.896988 0.773203 53.883286 -7.758317 24.006573 48.923084 28.054810 -14.949429 6.996825 0.000000 0.000000 -4.061095 8.191336 4.119452 10.464570 -3.443667 -0.039659 -4.184138 -2.722059 3.725469 -3.492414 -6.386791 -8.600812 10.666236 5.896856 -0.062748 -3.570996 6.865066 -8.551765 
-16.856386 43.519489 0.000000 -0.002429 -2.002403 89.997276 1.217939 -0.061545 -0.039514 3.395641 -0.137093 -0.587385 -24.149731 0.000000 0.000000 -0.121988 0.000000 0.000000 13.809147 -4.433702 1.318016 -8.262832 7.735103 -51.965843 -49.913761 -28.489307 -15.399130 -6.716347 -6.155077 -6.163223 -7.692362 4.896988 0.773203 53.883286 -7.758317 24.006573 48.923084 28.054810 -14.949429 6.996825 0.000000 0.000000 -3.753192 8.193009 4.133200 10.464570 -3.443667 -0.039659 -4.184138 -2.722059 3.725469 -3.185838 -6.386758 -8.602013 10.666237 5.896856 -0.062748 -3.570996 6.865066 -8.551765 
-16.835962 43.519489 0.000000 -0.002437 -1.752374 89.997406 1.868063 -0.061512 -0.039522 2.645535 -0.137096 -0.587400 -23.718834 0.000000 0.000000 -0.119809 0.000000 0.000000 13.809148 -4.433703 1.318016 -8.262832 7.735103 -51.965843 -49.913761 -28.489307 -15.399130 -6.946054 -6.041216 -5.893848 -7.692362 4.896988 0.773203 53.883286 -7.758317 24.006573 48.923084 28.054810 -14.949429 6.996825 0.000000 0.000000 -3.445264 8.194612 4.146961 10.464570 -3.443667 -0.039659 -4.184138 -2.722059 3.725469 -2.879237 -6.386722 -8.603217 10.666235 5.896855 -0.062748 -3.570996 6.865066 -8.551765 
-16.815536 43.519489 0.000000 -0.002444 -1.502333 89.997551 2.518396 -0.061478 -0.039530 1.895106 -0.137099 -0.587416 -23.287710 0.000000 0.000000 -0.117631 0.000000 0.000000 13.809147 -4.433702 1.318016 -8.262832 7.735103 -51.965843 -49.913761 -28.489307 -15.399130 -7.175193 -5.926272 -5.624963 -7.692362 4.896988 0.773203 53.883286 -7.758317 24.006573 48.923084 28.054810 -14.949429 6.996825 0.000000 0.000000 -3.137310 8.196141 4.160728 10.464570 -3.443667 -0.039659 -4.184138 -2.722059 3.725469 -2.572613 -6.386677 -8.604420 10.666236 5.896856 -0.062748 -3.570996 6.865066 -8.551765 
-16.795111 43.519489 0.000000 -0.002450 -1.252283 89.997696 3.168896 -0.061444 -0.039538 1.144420 -0.137103 -0.587431 -22.856352 0.000000 0.000000 -0.115453 0.000000 0.000000 13.809148 -4.433703 1.318016 -8.262832 7.735103 -51.965843 -49.913761 -28.489307 -15.399130 -7.403757 -5.810253 -5.356578 -7.692362 4.896988 0.773203 53.883286 -7.758317 24.006573 48.923084 28.054810 -14.949429 6.996825 0.000000 0.000000 -2.829337 8.197597 4.174506 10.464570 -3.443667 -0.039659 -4.184138 -2.722059 3.725469 -2.265973 -6.386628 -8.605622 10.666236 5.896856 -0.062748 -3.570996 6.865066 -8.551765 
-16.774687 43.519489 0.000000 -0.002456 -1.002226 89.997818 3.819523 -0.061410 -0.039545 0.393540 -0.137106 -0.587446 -22.424797 0.000000 0.000000 -0.113274 0.000000 0.000000 13.809147 -4.433702 1.318016 -8.262832 7.735103 -51.965843 -49.913761 -28.489307 -15.399130 -7.631739 -5.693163 -5.088700 -7.692362 4.896988 0.773203 53.883286 -7.758317 24.006573 48.923084 28.054810 -14.949429 6.996825 0.000000 0.000000 -2.521350 8.198977 4.188292 10.464570 -3.443667 -0.039659 -4.184138 -2.722059 3.725469 -1.959318 -6.386570 -8.606823 10.666237 5.896856 -0.062748 -3.570996 6.865066 -8.551765 
-16.754261 43.519489 0.000000 -0.002461 -0.752163 89.997955 4.470234 -0.061376 -0.039552 -0.357468 -0.137110 -0.587461 -21.993036 0.000000 0.000000 -0.111096 0.000000 0.000000 13.809148 -4.433703 1.318016 -8.262832 7.735103 -51.965843 -49.913761 -28.489307 -15.399130 -7.859132 -5.575013 -4.821338 -7.692362 4.896988 0.773203 53.883286 -7.758317 24.006573 48.923084 28.054810 -14.949429 6.996825 0.000000 0.000000 -2.213352 8.200285 4.202085 10.464570 -3.443667 -0.039659 -4.184138 -2.722059 3.725469 -1.652656 -6.386508 -8.608026 10.666235 5.896855 -0.062748 -3.570996 6.865066 -8.551765 
-16.733837 43.519489 0.000000 -0.002466 -0.502099 89.998100 5.120986 -0.061342 -0.039558 -1.108542 -0.137114 -0.587475 -21.561098 0.000000 0.000000 -0.108918 0.000000 0.000000 13.809147 -4.433702 1.318016 -8.262832 7.735103 -51.965843 -49.913761 -28.489307 -15.399130 -8.085926 -5.455805 -4.554496 -7.692362 4.896988 0.773203 53.883286 -7.758317 24.006573 48.923084 28.054810 -14.949429 6.996825 0.000000 0.000000 -1.905349 8.201521 4.215886 10.464570 -3.443667 -0.039659 -4.184138 -2.722059 3.725469 -1.345988 -6.386438 -8.609227 10.666236 5.896856 -0.062748 -3.570996 6.865066 -8.551765 
-16.713411 43.519489 0.000000 -0.002470 -0.252034 89.998238 5.771739 -0.061308 -0.039564 -1.859616 -0.137118 -0.587490 -21.128981 0.000000 0.000000 -0.106739 0.000000 0.000000 13.809148 -4.433703 1.318016 -8.262832 7.735103 -51.965843 -49.913761 -28.489307 -15.399130 -8.312117 -5.335548 -4.288183 -7.692362 4.896988 0.773203 53.883286 -7.758317 24.006573 48.923084 28.054810 -14.949429 6.996825 0.000000 0.000000 -1.597345 8.202683 4.229693 10.464570 -3.443667 -0.039659 -4.184138 -2.722059 3.725469 -1.039321 -6.386362 -8.610429 10.666237 5.896856 -0.062748 -3.570996 6.865066 -8.551765 
-16.692986 43.519489 0.000000 -0.002473 -0.001972 89.998367 6.422449 -0.061274 -0.039570 -2.610625 -0.137122 -0.587505 -20.696709 0.000000 0.000000 -0.104561 0.000000 0.000000 13.809147 -4.433702 1.318016 -8.262832 7.735103 -51.965843 -49.913761 -28.489307 -15.399130 -8.537696 -5.214249 -4.022406 -7.692362 4.896988 0.773203 53.883286 -7.758317 24.006573 48.923084 28.054810 -14.949429 6.996825 0.000000 0.000000 -1.289344 8.203771 4.243506 10.464570 -3.443667 -0.039659 -4.184138 -2.722059 3.725469 -0.732658 -6.386280 -8.611629 10.666235 5.896855 -0.062748 -3.570996 6.865066 -8.551765 
-16.672562 43.519489 0.000000 -0.002476 0.248086 89.998505 7.073074 -0.061240 -0.039575 -3.361503 -0.137127 -0.587520 -20.264282 0.000000 0.000000 -0.102383 0.000000 0.000000 13.809148 -4.433703 1.318016 -8.262832 7.735103 -51.965843 -49.913761 -28.489307 -15.399130 -8.762654 -5.091916 -3.757171 -7.692362 4.896988 0.773203 53.883286 -7.758317 24.006573 48.923084 28.054810 -14.949429 6.996825 0.000000 0.000000 -0.981350 8.204784 4.257325 10.464570 -3.443667 -0.039659 -4.184138 -2.722059 3.725469 -0.426004 -6.386190 -8.612827 10.666236 5.896856 -0.062748 -3.570996 6.865066 -8.551765 
-16.652136 43.519489 0.000000 -0.002478 0.498136 89.998634 7.723576 -0.061206 -0.039580 -4.112190 -0.137132 -0.587534 -19.831724 0.000000 0.000000 -0.100204 0.000000 0.000000 13.809147 -4.433702 1.318016 -8.262832 7.735103 -51.965843 -49.913761 -28.489307 -15.399130 -8.986984 -4.968554 -3.492485 -7.692362 4.896988 0.773203 53.883286 -7.758317 24.006573 48.923084 28.054810 -14.949429 6.996825 0.000000 0.000000 -0.673369 8.205727 4.271150 10.464570 -3.443667 -0.039659 -4.184138 -2.722059 3.725469 -0.119364 -6.386096 -8.614029 10.666236 5.896856 -0.062748 -3.570996 6.865066 -8.551765 
-16.631710 43.519489 0.000000 -0.002480 0.748177 89.998772 8.373910 -0.061172 -0.039585 -4.862619 -0.137137 -0.587549 -19.399048 0.000000 0.000000 -0.098026 0.000000 0.000000 13.809148 -4.433703 1.318016 -8.262832 7.735103 -51.965843 -49.913761 -28.489307 -15.399130 -9.210687 -4.844173 -3.228356 -7.692362 4.896988 0.773203 53.883286 -7.758317 24.006573 48.923084 28.054810 -14.949429 6.996825 0.000000 0.000000 -0.365405 8.206594 4.284976 10.464570 -3.443667 -0.039659 -4.184138 -2.722059 3.725469 0.187260 -6.385995 -8.615228 10.666237 5.896856 -0.062748 -3.570996 6.865066 -8.551765 
